<svg xmlns="http://www.w3.org/2000/svg" viewBox="0 0 100 100" width="200" height="200" aria-hidden="true"><g><path d="M66 26 C90 26 92 62 66 66" fill="none" stroke="hsl(357.6623376623377 61.68992248062015% 62.705882352941174%)" stroke-width="9" stroke-linecap="round"></path><path d="M28 12 L27 32 C17 48 20 82 48 94 C76 82 79 48 69 32 L68 12 Z" fill="#e5989b"></path><path d="M48 94 C76 82 79 48 69 32 L67 18 C71 46 80 66 60 86 C55 90 51 92 48 94Z" fill="hsl(357.6623376623377 61.68992248062015% 62.705882352941174%)"></path><ellipse cx="34" cy="52" rx="7" ry="18" fill="#fff" opacity="0.3" transform="rotate(-12 34 52)"></ellipse><ellipse cx="48" cy="12" rx="20.5" ry="6" fill="hsl(357.6623376623377 55.68992248062015% 85.70588235294117%)"></ellipse><ellipse cx="48" cy="12.5" rx="15" ry="4" fill="hsl(357.6623376623377 63.68992248062015% 50.705882352941174%)"></ellipse></g></svg>
