<svg xmlns="http://www.w3.org/2000/svg" viewBox="0 0 100 100" width="200" height="200" aria-hidden="true"><g><path d="M50 99 C46 76 54 50 50 5" fill="none" stroke="hsl(147.1875 47.243243243243256% 46.98039215686275%)" stroke-width="3" stroke-linecap="round"></path><g><path d="M50 12 L44 10" stroke="hsl(147.1875 47.243243243243256% 46.98039215686275%)" stroke-width="1.8" stroke-linecap="round"></path><ellipse cx="39.95" cy="10" rx="5.4" ry="4.644" fill="hsl(147.1875 39.243243243243256% 81.98039215686275%)"></ellipse></g><g><path d="M50 18.4 L56.8 16.4" stroke="hsl(147.1875 47.243243243243256% 46.98039215686275%)" stroke-width="1.8" stroke-linecap="round"></path><ellipse cx="61.315" cy="16.4" rx="6.0200000000000005" ry="5.1772" fill="#95d5b2"></ellipse></g><g><path d="M50 24.8 L42.4 22.8" stroke="hsl(147.1875 47.243243243243256% 46.98039215686275%)" stroke-width="1.8" stroke-linecap="round"></path><ellipse cx="37.42" cy="22.8" rx="6.640000000000001" ry="5.710400000000001" fill="hsl(147.1875 39.243243243243256% 81.98039215686275%)"></ellipse></g><g><path d="M50 31.200000000000003 L58.4 29.200000000000003" stroke="hsl(147.1875 47.243243243243256% 46.98039215686275%)" stroke-width="1.8" stroke-linecap="round"></path><ellipse cx="63.845" cy="29.200000000000003" rx="7.26" ry="6.2436" fill="#95d5b2"></ellipse></g><g><path d="M50 37.6 L40.8 35.6" stroke="hsl(147.1875 47.243243243243256% 46.98039215686275%)" stroke-width="1.8" stroke-linecap="round"></path><ellipse cx="34.89" cy="35.6" rx="7.880000000000001" ry="6.776800000000001" fill="hsl(147.1875 39.243243243243256% 81.98039215686275%)"></ellipse></g><g><path d="M50 44 L60 42" stroke="hsl(147.1875 47.243243243243256% 46.98039215686275%)" stroke-width="1.8" stroke-linecap="round"></path><ellipse cx="66.375" cy="42" rx="8.5" ry="7.31" fill="#95d5b2"></ellipse></g><g><path d="M50 50.400000000000006 L39.2 48.400000000000006" stroke="hsl(147.1875 47.243243243243256% 46.98039215686275%)" stroke-width="1.8" stroke-linecap="round"></path><ellipse cx="32.36" cy="48.400000000000006" rx="9.120000000000001" ry="7.8432" fill="hsl(147.1875 39.243243243243256% 81.98039215686275%)"></ellipse></g><g><path d="M50 56.800000000000004 L61.6 54.800000000000004" stroke="hsl(147.1875 47.243243243243256% 46.98039215686275%)" stroke-width="1.8" stroke-linecap="round"></path><ellipse cx="68.905" cy="54.800000000000004" rx="9.74" ry="8.3764" fill="#95d5b2"></ellipse></g><g><path d="M50 63.2 L37.6 61.2" stroke="hsl(147.1875 47.243243243243256% 46.98039215686275%)" stroke-width="1.8" stroke-linecap="round"></path><ellipse cx="29.830000000000002" cy="61.2" rx="10.36" ry="8.9096" fill="hsl(147.1875 39.243243243243256% 81.98039215686275%)"></ellipse></g><ellipse cx="50" cy="7" rx="5.4" ry="5.4" fill="hsl(147.1875 39.243243243243256% 81.98039215686275%)"></ellipse></g></svg>
