<svg xmlns="http://www.w3.org/2000/svg" viewBox="0 0 100 100" width="200" height="200" aria-hidden="true"><g><path d="M50 99
              C46.8 62.5
                34.3 34.6
                23.0 12
              C39.0 38.1
                50.3 64.2
                52.4 99 Z" fill="hsl(101.73913043478262 37.025380710659896% 49.372549019607845%)"></path><path d="M50 99
              C48.2 59.1
                41.3 28.7
                35.0 4
              C45.6 32.5
                51.9 61.0
                52.7 99 Z" fill="#8fbf7a"></path><path d="M50 99
              C49.4 60.8
                47.1 31.7
                45.0 8
              C50.6 35.3
                52.7 62.6
                52.6 99 Z" fill="hsl(101.73913043478262 31.025380710659896% 72.37254901960785%)"></path><path d="M50 99
              C50.8 58.3
                54.1 27.2
                57.0 2
              C57.0 31.1
                54.1 60.2
                52.7 99 Z" fill="#8fbf7a"></path><path d="M50 99
              C52.3 60.4
                61.0 30.9
                69.0 7
              C62.9 34.6
                54.9 62.2
                52.4 99 Z" fill="hsl(101.73913043478262 37.025380710659896% 49.372549019607845%)"></path><path d="M50 99
              C53.6 65.0
                67.4 39.1
                80.0 18
              C68.2 42.3
                55.6 66.6
                52.1 99 Z" fill="hsl(101.73913043478262 31.025380710659896% 72.37254901960785%)"></path></g></svg>
