<svg xmlns="http://www.w3.org/2000/svg" viewBox="0 0 100 100" width="200" height="200" aria-hidden="true"><g><path d="M50 88 L50 18" fill="none" stroke="#7f9172" stroke-width="2.6" stroke-linecap="round"></path><g transform="translate(43.18 18) scale(0.62) rotate(-20)"><path d="M-20 0 C-24 16 -12 26 0 26 C12 26 24 16 20 0 Z" fill="hsl(26.530612244897952 88.98224852071009% 54.86274509803923%)"></path><ellipse cx="0" cy="2" rx="13" ry="9" fill="hsl(26.530612244897952 90.98224852071009% 42.86274509803923%)"></ellipse><ellipse cx="0" cy="1" rx="7" ry="4.5" fill="#f9c74f"></ellipse><path d="M-20 1 C-23 -14 -13 -24 -4 -22 C-1 -21 -1 -12 -2 1 Z" fill="hsl(26.530612244897952 82.98224852071009% 77.86274509803923%)"></path><path d="M20 1 C23 -14 13 -24 4 -22 C1 -21 1 -12 2 1 Z" fill="#f4a261"></path></g><g transform="translate(58.03 35) scale(0.73) rotate(20)"><path d="M-20 0 C-24 16 -12 26 0 26 C12 26 24 16 20 0 Z" fill="hsl(26.530612244897952 88.98224852071009% 54.86274509803923%)"></path><ellipse cx="0" cy="2" rx="13" ry="9" fill="hsl(26.530612244897952 90.98224852071009% 42.86274509803923%)"></ellipse><ellipse cx="0" cy="1" rx="7" ry="4.5" fill="#f9c74f"></ellipse><path d="M-20 1 C-23 -14 -13 -24 -4 -22 C-1 -21 -1 -12 -2 1 Z" fill="hsl(26.530612244897952 82.98224852071009% 77.86274509803923%)"></path><path d="M20 1 C23 -14 13 -24 4 -22 C1 -21 1 -12 2 1 Z" fill="#f4a261"></path></g><g transform="translate(40.76 52) scale(0.84) rotate(-20)"><path d="M-20 0 C-24 16 -12 26 0 26 C12 26 24 16 20 0 Z" fill="hsl(26.530612244897952 88.98224852071009% 54.86274509803923%)"></path><ellipse cx="0" cy="2" rx="13" ry="9" fill="hsl(26.530612244897952 90.98224852071009% 42.86274509803923%)"></ellipse><ellipse cx="0" cy="1" rx="7" ry="4.5" fill="#f9c74f"></ellipse><path d="M-20 1 C-23 -14 -13 -24 -4 -22 C-1 -21 -1 -12 -2 1 Z" fill="hsl(26.530612244897952 82.98224852071009% 77.86274509803923%)"></path><path d="M20 1 C23 -14 13 -24 4 -22 C1 -21 1 -12 2 1 Z" fill="#f4a261"></path></g><g transform="translate(60.45 69) scale(0.95) rotate(20)"><path d="M-20 0 C-24 16 -12 26 0 26 C12 26 24 16 20 0 Z" fill="hsl(26.530612244897952 88.98224852071009% 54.86274509803923%)"></path><ellipse cx="0" cy="2" rx="13" ry="9" fill="hsl(26.530612244897952 90.98224852071009% 42.86274509803923%)"></ellipse><ellipse cx="0" cy="1" rx="7" ry="4.5" fill="#f9c74f"></ellipse><path d="M-20 1 C-23 -14 -13 -24 -4 -22 C-1 -21 -1 -12 -2 1 Z" fill="hsl(26.530612244897952 82.98224852071009% 77.86274509803923%)"></path><path d="M20 1 C23 -14 13 -24 4 -22 C1 -21 1 -12 2 1 Z" fill="#f4a261"></path></g><g transform="translate(38.34 86) scale(1.06) rotate(-20)"><path d="M-20 0 C-24 16 -12 26 0 26 C12 26 24 16 20 0 Z" fill="hsl(26.530612244897952 88.98224852071009% 54.86274509803923%)"></path><ellipse cx="0" cy="2" rx="13" ry="9" fill="hsl(26.530612244897952 90.98224852071009% 42.86274509803923%)"></ellipse><ellipse cx="0" cy="1" rx="7" ry="4.5" fill="#f9c74f"></ellipse><path d="M-20 1 C-23 -14 -13 -24 -4 -22 C-1 -21 -1 -12 -2 1 Z" fill="hsl(26.530612244897952 82.98224852071009% 77.86274509803923%)"></path><path d="M20 1 C23 -14 13 -24 4 -22 C1 -21 1 -12 2 1 Z" fill="#f4a261"></path></g><ellipse cx="50" cy="11" rx="5" ry="7" fill="hsl(26.530612244897952 82.98224852071009% 77.86274509803923%)"></ellipse></g></svg>
