<svg xmlns="http://www.w3.org/2000/svg" viewBox="0 0 100 100" width="200" height="200" aria-hidden="true"><g><g transform="rotate(0 50 50)"><ellipse cx="50" cy="26" rx="8" ry="18" fill="hsl(26.530612244897952 88.98224852071009% 54.86274509803923%)"></ellipse></g><g transform="rotate(32.72727272727273 50 50)"><ellipse cx="50" cy="26" rx="8" ry="18" fill="hsl(26.530612244897952 88.98224852071009% 54.86274509803923%)"></ellipse></g><g transform="rotate(65.45454545454545 50 50)"><ellipse cx="50" cy="26" rx="8" ry="18" fill="hsl(26.530612244897952 88.98224852071009% 54.86274509803923%)"></ellipse></g><g transform="rotate(98.18181818181819 50 50)"><ellipse cx="50" cy="26" rx="8" ry="18" fill="hsl(26.530612244897952 88.98224852071009% 54.86274509803923%)"></ellipse></g><g transform="rotate(130.9090909090909 50 50)"><ellipse cx="50" cy="26" rx="8" ry="18" fill="hsl(26.530612244897952 88.98224852071009% 54.86274509803923%)"></ellipse></g><g transform="rotate(163.63636363636363 50 50)"><ellipse cx="50" cy="26" rx="8" ry="18" fill="hsl(26.530612244897952 88.98224852071009% 54.86274509803923%)"></ellipse></g><g transform="rotate(196.36363636363637 50 50)"><ellipse cx="50" cy="26" rx="8" ry="18" fill="hsl(26.530612244897952 88.98224852071009% 54.86274509803923%)"></ellipse></g><g transform="rotate(229.0909090909091 50 50)"><ellipse cx="50" cy="26" rx="8" ry="18" fill="hsl(26.530612244897952 88.98224852071009% 54.86274509803923%)"></ellipse></g><g transform="rotate(261.8181818181818 50 50)"><ellipse cx="50" cy="26" rx="8" ry="18" fill="hsl(26.530612244897952 88.98224852071009% 54.86274509803923%)"></ellipse></g><g transform="rotate(294.54545454545456 50 50)"><ellipse cx="50" cy="26" rx="8" ry="18" fill="hsl(26.530612244897952 88.98224852071009% 54.86274509803923%)"></ellipse></g><g transform="rotate(327.27272727272725 50 50)"><ellipse cx="50" cy="26" rx="8" ry="18" fill="hsl(26.530612244897952 88.98224852071009% 54.86274509803923%)"></ellipse></g><g transform="rotate(16 50 50)"><ellipse cx="50" cy="33" rx="7.5" ry="15" fill="#f4a261"></ellipse></g><g transform="rotate(48.72727272727273 50 50)"><ellipse cx="50" cy="33" rx="7.5" ry="15" fill="#f4a261"></ellipse></g><g transform="rotate(81.45454545454545 50 50)"><ellipse cx="50" cy="33" rx="7.5" ry="15" fill="#f4a261"></ellipse></g><g transform="rotate(114.18181818181819 50 50)"><ellipse cx="50" cy="33" rx="7.5" ry="15" fill="#f4a261"></ellipse></g><g transform="rotate(146.9090909090909 50 50)"><ellipse cx="50" cy="33" rx="7.5" ry="15" fill="#f4a261"></ellipse></g><g transform="rotate(179.63636363636363 50 50)"><ellipse cx="50" cy="33" rx="7.5" ry="15" fill="#f4a261"></ellipse></g><g transform="rotate(212.36363636363637 50 50)"><ellipse cx="50" cy="33" rx="7.5" ry="15" fill="#f4a261"></ellipse></g><g transform="rotate(245.0909090909091 50 50)"><ellipse cx="50" cy="33" rx="7.5" ry="15" fill="#f4a261"></ellipse></g><g transform="rotate(277.8181818181818 50 50)"><ellipse cx="50" cy="33" rx="7.5" ry="15" fill="#f4a261"></ellipse></g><g transform="rotate(310.54545454545456 50 50)"><ellipse cx="50" cy="33" rx="7.5" ry="15" fill="#f4a261"></ellipse></g><g transform="rotate(343.27272727272725 50 50)"><ellipse cx="50" cy="33" rx="7.5" ry="15" fill="#f4a261"></ellipse></g><g transform="rotate(8 50 50)"><ellipse cx="50" cy="40" rx="6" ry="10" fill="hsl(26.530612244897952 82.98224852071009% 77.86274509803923%)"></ellipse></g><g transform="rotate(48 50 50)"><ellipse cx="50" cy="40" rx="6" ry="10" fill="hsl(26.530612244897952 82.98224852071009% 77.86274509803923%)"></ellipse></g><g transform="rotate(88 50 50)"><ellipse cx="50" cy="40" rx="6" ry="10" fill="hsl(26.530612244897952 82.98224852071009% 77.86274509803923%)"></ellipse></g><g transform="rotate(128 50 50)"><ellipse cx="50" cy="40" rx="6" ry="10" fill="hsl(26.530612244897952 82.98224852071009% 77.86274509803923%)"></ellipse></g><g transform="rotate(168 50 50)"><ellipse cx="50" cy="40" rx="6" ry="10" fill="hsl(26.530612244897952 82.98224852071009% 77.86274509803923%)"></ellipse></g><g transform="rotate(208 50 50)"><ellipse cx="50" cy="40" rx="6" ry="10" fill="hsl(26.530612244897952 82.98224852071009% 77.86274509803923%)"></ellipse></g><g transform="rotate(248 50 50)"><ellipse cx="50" cy="40" rx="6" ry="10" fill="hsl(26.530612244897952 82.98224852071009% 77.86274509803923%)"></ellipse></g><g transform="rotate(288 50 50)"><ellipse cx="50" cy="40" rx="6" ry="10" fill="hsl(26.530612244897952 82.98224852071009% 77.86274509803923%)"></ellipse></g><g transform="rotate(328 50 50)"><ellipse cx="50" cy="40" rx="6" ry="10" fill="hsl(26.530612244897952 82.98224852071009% 77.86274509803923%)"></ellipse></g><circle cx="50" cy="50" r="8.5" fill="#f9c74f"></circle><g transform="rotate(0 50 50)"><circle cx="50" cy="44" r="2.4" fill="#f3a712"></circle></g><g transform="rotate(45 50 50)"><circle cx="50" cy="44" r="2.4" fill="#f3a712"></circle></g><g transform="rotate(90 50 50)"><circle cx="50" cy="44" r="2.4" fill="#f3a712"></circle></g><g transform="rotate(135 50 50)"><circle cx="50" cy="44" r="2.4" fill="#f3a712"></circle></g><g transform="rotate(180 50 50)"><circle cx="50" cy="44" r="2.4" fill="#f3a712"></circle></g><g transform="rotate(225 50 50)"><circle cx="50" cy="44" r="2.4" fill="#f3a712"></circle></g><g transform="rotate(270 50 50)"><circle cx="50" cy="44" r="2.4" fill="#f3a712"></circle></g><g transform="rotate(315 50 50)"><circle cx="50" cy="44" r="2.4" fill="#f3a712"></circle></g></g></svg>
