<svg xmlns="http://www.w3.org/2000/svg" viewBox="0 0 100 100" width="200" height="200" aria-hidden="true"><g><g transform="rotate(0 50 50)"><circle cx="50" cy="30" r="15" fill="#ef476f"></circle></g><g transform="rotate(51.42857142857143 50 50)"><circle cx="50" cy="30" r="15" fill="#ef476f"></circle></g><g transform="rotate(102.85714285714286 50 50)"><circle cx="50" cy="30" r="15" fill="#ef476f"></circle></g><g transform="rotate(154.28571428571428 50 50)"><circle cx="50" cy="30" r="15" fill="#ef476f"></circle></g><g transform="rotate(205.71428571428572 50 50)"><circle cx="50" cy="30" r="15" fill="#ef476f"></circle></g><g transform="rotate(257.14285714285717 50 50)"><circle cx="50" cy="30" r="15" fill="#ef476f"></circle></g><g transform="rotate(308.57142857142856 50 50)"><circle cx="50" cy="30" r="15" fill="#ef476f"></circle></g><g transform="rotate(26 50 50)"><circle cx="50" cy="37" r="12.5" fill="hsl(345.7142857142858 80% 71.7843137254902%)"></circle></g><g transform="rotate(86 50 50)"><circle cx="50" cy="37" r="12.5" fill="hsl(345.7142857142858 80% 71.7843137254902%)"></circle></g><g transform="rotate(146 50 50)"><circle cx="50" cy="37" r="12.5" fill="hsl(345.7142857142858 80% 71.7843137254902%)"></circle></g><g transform="rotate(206 50 50)"><circle cx="50" cy="37" r="12.5" fill="hsl(345.7142857142858 80% 71.7843137254902%)"></circle></g><g transform="rotate(266 50 50)"><circle cx="50" cy="37" r="12.5" fill="hsl(345.7142857142858 80% 71.7843137254902%)"></circle></g><g transform="rotate(326 50 50)"><circle cx="50" cy="37" r="12.5" fill="hsl(345.7142857142858 80% 71.7843137254902%)"></circle></g><circle cx="50" cy="50" r="20" fill="#ef476f"></circle><path d="M50 50 C56 50 58 43 52 40 C44 36 38 45 42 53 C47 63 60 60 63 50 C67 37 54 28 42 32 C28 37 24 54 32 65" fill="none" stroke="hsl(345.7142857142858 88% 36.7843137254902%)" stroke-width="4" stroke-linecap="round"></path></g></svg>
